<?xml version="1.0" encoding="UTF-8" standalone="no"?>
<!-- Created with Inkscape (http://www.inkscape.org/) -->

<svg
   xmlns:dc="http://purl.org/dc/elements/1.1/"
   xmlns:cc="http://creativecommons.org/ns#"
   xmlns:rdf="http://www.w3.org/1999/02/22-rdf-syntax-ns#"
   xmlns:svg="http://www.w3.org/2000/svg"
   xmlns="http://www.w3.org/2000/svg"
   xmlns:sodipodi="http://sodipodi.sourceforge.net/DTD/sodipodi-0.dtd"
   xmlns:inkscape="http://www.inkscape.org/namespaces/inkscape"
   width="197mm"
   height="118mm"
   viewBox="0 0 698.03134 418.10999"
   id="svg2"
   version="1.1"
   inkscape:version="0.91 r13725"
   sodipodi:docname="iTS.svg">
  <defs
     id="defs4" />
  <sodipodi:namedview
     id="base"
     pagecolor="#ffffff"
     bordercolor="#666666"
     borderopacity="1.0"
     inkscape:pageopacity="0.0"
     inkscape:pageshadow="2"
     inkscape:zoom="0.35"
     inkscape:cx="-8.3381814"
     inkscape:cy="520"
     inkscape:document-units="px"
     inkscape:current-layer="layer1"
     showgrid="false"
     inkscape:window-width="958"
     inkscape:window-height="1038"
     inkscape:window-x="960"
     inkscape:window-y="42"
     inkscape:window-maximized="0" />
  <metadata
     id="metadata7">
    <rdf:RDF>
      <cc:Work
         rdf:about="">
        <dc:format>image/svg+xml</dc:format>
        <dc:type
           rdf:resource="http://purl.org/dc/dcmitype/StillImage" />
        <dc:title />
      </cc:Work>
    </rdf:RDF>
  </metadata>
  <g
     inkscape:groupmode="layer"
     id="layer2"
     inkscape:label="Layer 2"
     transform="translate(0,-325.98443)" />
  <g
     inkscape:label="Layer 1"
     inkscape:groupmode="layer"
     id="layer1"
     transform="translate(0,-634.25224)">
    <flowRoot
       xml:space="preserve"
       id="flowRoot3351"
       style="font-style:normal;font-weight:normal;font-size:40px;line-height:125%;font-family:sans-serif;letter-spacing:0px;word-spacing:0px;fill:#000000;fill-opacity:1;stroke:none;stroke-width:1px;stroke-linecap:butt;stroke-linejoin:miter;stroke-opacity:1"><flowRegion
         id="flowRegion3353"><rect
           id="rect3355"
           width="114.28571"
           height="65.714287"
           x="388.57144"
           y="226.95163" /></flowRegion><flowPara
         id="flowPara3357" /></flowRoot>    <flowRoot
       xml:space="preserve"
       id="flowRoot3359"
       style="font-style:normal;font-variant:normal;font-weight:normal;font-stretch:normal;font-size:400px;line-height:125%;font-family:Courgette;-inkscape-font-specification:Courgette;letter-spacing:0px;word-spacing:0px;fill:#000000;fill-opacity:1;stroke:none;stroke-width:1px;stroke-linecap:butt;stroke-linejoin:miter;stroke-opacity:1"><flowRegion
         id="flowRegion3361"><rect
           id="rect3363"
           width="971.42859"
           height="677.14288"
           x="31.428572"
           y="29.808767"
           style="font-style:normal;font-variant:normal;font-weight:normal;font-stretch:normal;font-size:400px;font-family:Courgette;-inkscape-font-specification:Courgette" /></flowRegion><flowPara
         id="flowPara3365" /></flowRoot>    <flowRoot
       xml:space="preserve"
       id="flowRoot3378"
       style="font-style:normal;font-weight:normal;font-size:400px;line-height:125%;font-family:sans-serif;letter-spacing:0px;word-spacing:0px;fill:#000000;fill-opacity:1;stroke:none;stroke-width:1px;stroke-linecap:butt;stroke-linejoin:miter;stroke-opacity:1"
       transform="translate(0,308.26772)"><flowRegion
         id="flowRegion3380"><rect
           id="rect3382"
           width="345.71429"
           height="371.42856"
           x="200"
           y="64.094482"
           style="font-size:400px" /></flowRegion><flowPara
         id="flowPara3384"
         style="font-size:400px">TT</flowPara></flowRoot>    <g
       transform="translate(42.85714,582.55335)"
       style="font-style:normal;font-weight:normal;font-size:40px;line-height:125%;font-family:sans-serif;letter-spacing:0px;word-spacing:0px;fill:#000000;fill-opacity:1;stroke:none;stroke-width:1px;stroke-linecap:butt;stroke-linejoin:miter;stroke-opacity:1"
       id="flowRoot3367">
      <path
         d="m 165.24609,166.86719 q -4.29687,4.49218 -9.76562,7.42187 -5.46875,2.73438 -11.52344,3.51563 -6.05469,0.58593 -11.52344,-1.95313 -5.27343,-2.53906 -9.17968,-7.22656 -8.39844,-9.76563 -8.39844,-19.72656 0,-9.96094 3.125,-14.84375 3.32031,-5.07813 8.20312,-8.20313 9.375,-6.05468 17.57813,-6.05468 8.39844,0 12.89062,1.17187 4.6875,1.17188 8.59375,3.90625 9.57032,6.44531 9.57032,15.82031 0,9.17969 -2.73438,15.42969 -2.53906,6.05469 -6.83594,10.74219 z m -40.03906,211.32812 q 5.07813,0 5.07813,6.64063 0,8.78906 -8.00782,18.16406 -11.71875,13.67187 -31.445309,13.67187 -22.65625,0 -31.054687,-18.35937 -3.125,-6.44531 -3.125,-15.625 0,-9.17969 3.125,-20.3125 3.320312,-11.32813 8.007812,-23.63281 4.882813,-12.5 10.546875,-25.19532 L 88.683594,288.9375 q 11.328126,-27.53906 11.328126,-36.32813 0,-8.78906 -1.953126,-11.52343 -1.757813,-2.92969 -3.90625,-4.49219 l -3.90625,-2.73438 q -1.953125,-1.36718 -1.953125,-4.6875 0,-3.51562 2.539062,-6.64062 2.734375,-3.125 7.03125,-5.46875 8.789059,-4.49219 20.507809,-4.49219 28.71094,0 28.71094,15.03906 0,17.57813 -9.17969,40.23438 -9.17968,22.46094 -15.625,36.32812 L 110.55859,331.125 q -12.890621,29.6875 -12.890621,42.77344 0,8.59375 8.593751,8.59375 8.39844,0 12.69531,-2.14844 4.29688,-2.14844 6.25,-2.14844 z"
         style="font-style:normal;font-variant:normal;font-weight:normal;font-stretch:normal;font-size:400px;font-family:courgette;-inkscape-font-specification:courgette"
         id="path3376"
         inkscape:connector-curvature="0" />
    </g>
    <g
       transform="translate(5.71429,588.26763)"
       style="font-style:normal;font-weight:normal;font-size:40px;line-height:125%;font-family:sans-serif;letter-spacing:0px;word-spacing:0px;fill:#000000;fill-opacity:1;stroke:none;stroke-width:1px;stroke-linecap:butt;stroke-linejoin:miter;stroke-opacity:1"
       id="flowRoot3386">
      <path
         d="m 458.08594,142.01367 q -5.66407,4.10156 -13.28125,6.25 -7.42188,1.95313 -20.11719,1.95313 -12.5,0 -32.61719,-1.75782 -4.6875,12.69532 -9.57031,29.6875 l -22.46094,76.5625 q -41.60156,137.5 -88.67187,154.29688 -3.32032,1.36719 -8.59375,1.36719 -5.07813,0 -8.39844,-1.36719 -3.125,-1.17188 -5.27344,-3.125 -4.29687,-3.51563 -4.29687,-7.03125 0,-3.51563 1.75781,-4.6875 l 5.07812,-3.125 q 28.125,-18.35938 51.5625,-97.65625 l 14.0625,-47.65625 q 18.94532,-64.25781 35.35157,-100.97656 -15.42969,-1.36719 -23.4375,-1.36719 -23.04688,0 -33.20313,6.44531 -9.96094,6.44531 -14.0625,14.0625 -3.90625,7.42188 -4.10156,10.35156 -0.58594,5.46875 -3.51563,7.03125 -2.92968,1.36719 -7.22656,1.36719 -4.10156,0 -8.59375,-2.92969 -4.49219,-3.125 -7.42187,-7.8125 -6.25,-9.57031 -4.88282,-21.48437 1.36719,-12.10938 7.8125,-20.70313 6.64063,-8.78906 15.625,-14.25781 16.60157,-10.15625 34.96094,-10.15625 18.55469,0 34.96094,1.95313 16.60156,1.75781 33.00781,4.10156 43.55469,5.85937 55.46875,5.85937 11.91406,0 17.57813,-1.36718 5.85937,-1.36719 9.96093,-4.10157 4.10157,-2.73437 5.66407,-3.51562 1.75781,-0.97656 5.46875,-0.97656 5.85937,0 5.07812,8.98437 -0.78125,8.78906 -4.29687,15.23438 -3.51563,6.25 -9.375,10.54687 z"
         style="font-style:normal;font-variant:normal;font-weight:normal;font-stretch:normal;font-size:400px;font-family:Courgette;-inkscape-font-specification:Courgette"
         id="path3395"
         inkscape:connector-curvature="0" />
    </g>
    <g
       transform="matrix(-1,0,0,-1,1205.6602,1161.4691)"
       style="font-style:normal;font-weight:normal;font-size:40px;line-height:125%;font-family:sans-serif;letter-spacing:0px;word-spacing:0px;fill:#000000;fill-opacity:1;stroke:none;stroke-width:1px;stroke-linecap:butt;stroke-linejoin:miter;stroke-opacity:1"
       id="flowRoot3408">
      <path
         d="m 617.79102,393.0293 -1.75782,15.03906 q 0,23.63281 15.82032,32.22656 5.46875,2.92969 13.08593,2.92969 7.61719,0 13.67188,-2.53906 6.05469,-2.73438 9.96094,-7.03125 8.20312,-8.78907 8.20312,-20.3125 0,-11.52344 -4.6875,-20.89844 -4.6875,-9.375 -11.71875,-18.75 l -15.625,-19.14063 q -18.94531,-22.65625 -25.39062,-41.21093 -6.44532,-18.75 -6.44532,-34.375 0,-15.625 3.71094,-29.49219 3.90625,-14.0625 10.74219,-26.5625 6.83594,-12.69531 16.40625,-23.24219 9.57031,-10.54687 21.28906,-18.16406 24.41406,-16.40625 48.4375,-16.40625 24.02344,0 37.5,6.64062 13.47656,6.64063 21.67969,16.79688 15.23437,19.14062 15.23437,46.28906 0,25.19531 -14.25781,47.46094 -13.08594,20.3125 -29.29687,25.78125 -3.51563,1.75781 -9.76563,1.75781 -6.05469,0 -10.35156,-1.75781 -4.10156,-1.95313 -7.22656,-5.07813 -6.83594,-6.83593 -6.83594,-14.84375 0,-5.46875 3.32031,-7.22656 14.84375,-8.00781 25.78125,-23.24219 11.91406,-16.60156 12.5,-33.00781 0.58594,-16.60156 -8.00781,-24.41406 -8.39844,-8.00781 -22.46094,-8.00781 -14.0625,0 -25.39062,6.44531 -11.32813,6.25 -19.53125,16.99219 -17.57813,23.04687 -17.57813,54.49218 0,20.89844 14.45313,44.14063 6.05468,9.96094 13.08593,19.72656 7.22657,9.57031 13.47657,19.72656 14.25781,23.63282 14.25781,42.38282 0,18.75 -6.83594,31.64062 -6.64062,12.89063 -17.77344,22.46094 -24.02343,20.70312 -54.6875,20.70312 -28.90625,0 -44.53125,-17.1875 -12.5,-13.86718 -12.5,-30.07812 0,-17.57813 9.96094,-29.6875 7.61719,-9.17969 14.64844,-10.9375 15.42969,-4.10156 15.42969,9.96094 z"
         style="font-style:normal;font-variant:normal;font-weight:normal;font-stretch:normal;font-size:400px;font-family:Courgette;-inkscape-font-specification:Courgette"
         id="path3417"
         inkscape:connector-curvature="0" />
    </g>
  </g>
</svg>
